<?xml version="1.0" standalone="no"?>
<!DOCTYPE svg PUBLIC "-//W3C//DTD SVG 20010904//EN"
 "http://www.w3.org/TR/2001/REC-SVG-20010904/DTD/svg10.dtd">
<svg version="1.0" xmlns="http://www.w3.org/2000/svg"
 width="214.000000pt" height="214.000000pt" viewBox="0 0 214.000000 214.000000"
 preserveAspectRatio="xMidYMid meet">
<metadata>
Created by potrace 1.11, written by Peter Selinger 2001-2013
</metadata>
<g transform="translate(0.000000,214.000000) scale(0.100000,-0.100000)"
fill="#000000" stroke="none">
<path d="M0 1065 l0 -1065 1070 0 1070 0 0 1065 0 1065 -1070 0 -1070 0 0
-1065z m1189 850 c219 -33 378 -111 521 -256 125 -126 189 -238 235 -412 39
-146 31 -378 -17 -502 -71 -184 -163 -311 -304 -421 -31 -24 -61 -41 -67 -37
-6 3 -7 2 -4 -4 9 -14 -152 -91 -243 -115 -94 -26 -333 -31 -420 -9 -540 137
-836 694 -635 1196 123 306 395 516 730 564 88 13 96 12 204 -4z"/>
<path d="M575 1514 c-36 -37 -69 -118 -69 -176 -1 -47 4 -63 29 -100 18 -24
51 -54 78 -69 l48 -26 -70 -37 c-39 -20 -71 -42 -71 -47 0 -16 52 -60 90 -77
19 -8 64 -16 100 -17 l65 -2 33 -64 c34 -67 52 -148 52 -237 0 -59 7 -69 90
-119 66 -40 169 -44 241 -11 30 14 68 37 85 51 30 26 31 29 36 130 5 90 10
112 38 170 18 37 37 70 42 73 6 4 39 8 73 10 39 1 77 10 101 23 46 24 84 55
84 68 0 5 -33 27 -74 48 l-74 39 37 17 c116 51 151 160 93 284 -16 33 -36 66
-45 73 -14 12 -18 9 -32 -25 -20 -48 -68 -99 -118 -124 -114 -59 -344 -83
-518 -55 -166 28 -258 78 -302 166 -23 47 -26 49 -42 34z"/>
<path d="M409 983 c3 -38 10 -53 35 -75 37 -33 105 -67 149 -74 62 -11 86 -25
96 -58 19 -61 22 -102 11 -166 l-10 -65 51 -47 c87 -79 202 -131 313 -142 107
-11 257 44 358 130 l53 45 0 117 c0 143 10 166 77 176 59 9 146 51 186 89 26
25 32 39 32 74 0 24 -3 43 -6 43 -3 0 -29 -21 -58 -46 -60 -55 -120 -83 -196
-92 -54 -7 -55 -8 -85 -62 -27 -51 -30 -63 -31 -158 l0 -104 -45 -35 c-65 -53
-160 -94 -229 -100 -82 -8 -184 26 -264 87 l-61 45 0 95 c0 85 -3 102 -31 161
l-32 66 -55 5 c-67 5 -151 46 -203 99 -22 21 -44 38 -49 39 -6 0 -9 -20 -6
-47z"/>
</g>
</svg>
